<mxfile host="app.diagrams.net" modified="2024-04-05T12:19:39.980Z" agent="Mozilla/5.0 (Macintosh; Intel Mac OS X 10_15_7) AppleWebKit/537.36 (KHTML, like Gecko) Chrome/123.0.0.0 Safari/537.36" etag="9D_Frop_vjvhQidbPoDy" version="24.2.2" type="github">
  <diagram name="Page-1" id="b520641d-4fe3-3701-9064-5fc419738815">
    <mxGraphModel dx="1060" dy="554" grid="1" gridSize="10" guides="1" tooltips="1" connect="1" arrows="1" fold="1" page="1" pageScale="1" pageWidth="1100" pageHeight="850" background="none" math="0" shadow="0">
      <root>
        <mxCell id="0" />
        <mxCell id="1" parent="0" />
        <mxCell id="21ea969265ad0168-6" value="Users" style="swimlane;html=1;fontStyle=0;childLayout=stackLayout;horizontal=1;startSize=26;fillColor=#e0e0e0;horizontalStack=0;resizeParent=1;resizeLast=0;collapsible=1;marginBottom=0;swimlaneFillColor=#ffffff;align=center;rounded=1;shadow=0;comic=0;labelBackgroundColor=none;strokeWidth=1;fontFamily=Verdana;fontSize=12" parent="1" vertex="1">
          <mxGeometry x="475" y="234" width="160" height="166" as="geometry">
            <mxRectangle x="160" y="74" width="70" height="30" as="alternateBounds" />
          </mxGeometry>
        </mxCell>
        <mxCell id="cT_zoDqVWwbqLLkgSUqI-38" value="&lt;font color=&quot;#cc6600&quot;&gt;id&lt;/font&gt; &lt;font color=&quot;#006600&quot;&gt;(INT)&lt;/font&gt;" style="text;html=1;strokeColor=none;fillColor=none;spacingLeft=4;spacingRight=4;whiteSpace=wrap;overflow=hidden;rotatable=0;points=[[0,0.5],[1,0.5]];portConstraint=eastwest;align=left;" vertex="1" parent="21ea969265ad0168-6">
          <mxGeometry y="26" width="160" height="26" as="geometry" />
        </mxCell>
        <mxCell id="21ea969265ad0168-8" value="username &lt;font color=&quot;#006600&quot;&gt;(STR)&lt;/font&gt;" style="text;html=1;strokeColor=none;fillColor=none;spacingLeft=4;spacingRight=4;whiteSpace=wrap;overflow=hidden;rotatable=0;points=[[0,0.5],[1,0.5]];portConstraint=eastwest;" parent="21ea969265ad0168-6" vertex="1">
          <mxGeometry y="52" width="160" height="26" as="geometry" />
        </mxCell>
        <mxCell id="21ea969265ad0168-9" value="email &lt;font color=&quot;#006600&quot;&gt;(STR)&lt;/font&gt;" style="text;html=1;strokeColor=none;fillColor=none;spacingLeft=4;spacingRight=4;whiteSpace=wrap;overflow=hidden;rotatable=0;points=[[0,0.5],[1,0.5]];portConstraint=eastwest;" parent="21ea969265ad0168-6" vertex="1">
          <mxGeometry y="78" width="160" height="30" as="geometry" />
        </mxCell>
        <mxCell id="cT_zoDqVWwbqLLkgSUqI-1" value="password_dogest &lt;font color=&quot;#006600&quot;&gt;(STR)&lt;/font&gt;" style="text;html=1;strokeColor=none;fillColor=none;spacingLeft=4;spacingRight=4;whiteSpace=wrap;overflow=hidden;rotatable=0;points=[[0,0.5],[1,0.5]];portConstraint=eastwest;" vertex="1" parent="21ea969265ad0168-6">
          <mxGeometry y="108" width="160" height="30" as="geometry" />
        </mxCell>
        <mxCell id="cT_zoDqVWwbqLLkgSUqI-2" value="role &lt;font color=&quot;#006600&quot;&gt;(STR)&lt;/font&gt;" style="text;html=1;strokeColor=none;fillColor=none;spacingLeft=4;spacingRight=4;whiteSpace=wrap;overflow=hidden;rotatable=0;points=[[0,0.5],[1,0.5]];portConstraint=eastwest;" vertex="1" parent="21ea969265ad0168-6">
          <mxGeometry y="138" width="160" height="20" as="geometry" />
        </mxCell>
        <mxCell id="21ea969265ad0168-14" value="Payments" style="swimlane;html=1;fontStyle=0;childLayout=stackLayout;horizontal=1;startSize=26;fillColor=#e0e0e0;horizontalStack=0;resizeParent=1;resizeLast=0;collapsible=1;marginBottom=0;swimlaneFillColor=#ffffff;align=center;rounded=1;shadow=0;comic=0;labelBackgroundColor=none;strokeWidth=1;fontFamily=Verdana;fontSize=12" parent="1" vertex="1">
          <mxGeometry x="225" y="460" width="160" height="190" as="geometry" />
        </mxCell>
        <mxCell id="21ea969265ad0168-15" value="&lt;font color=&quot;#cc6600&quot;&gt;id &lt;/font&gt;&lt;font color=&quot;#006600&quot;&gt;(INT)&lt;/font&gt;" style="text;html=1;strokeColor=none;fillColor=none;spacingLeft=4;spacingRight=4;whiteSpace=wrap;overflow=hidden;rotatable=0;points=[[0,0.5],[1,0.5]];portConstraint=eastwest;" parent="21ea969265ad0168-14" vertex="1">
          <mxGeometry y="26" width="160" height="26" as="geometry" />
        </mxCell>
        <mxCell id="21ea969265ad0168-16" value="&lt;font color=&quot;#007fff&quot;&gt;debit_transaction_id &lt;/font&gt;&lt;font color=&quot;#006600&quot;&gt;(INT)&lt;/font&gt;" style="text;html=1;strokeColor=none;fillColor=none;spacingLeft=4;spacingRight=4;whiteSpace=wrap;overflow=hidden;rotatable=0;points=[[0,0.5],[1,0.5]];portConstraint=eastwest;" parent="21ea969265ad0168-14" vertex="1">
          <mxGeometry y="52" width="160" height="26" as="geometry" />
        </mxCell>
        <mxCell id="cT_zoDqVWwbqLLkgSUqI-70" value="&lt;font color=&quot;#007fff&quot;&gt;credit_transaction_id &lt;/font&gt;&lt;font color=&quot;#006600&quot;&gt;(INT)&lt;/font&gt;" style="text;html=1;strokeColor=none;fillColor=none;spacingLeft=4;spacingRight=4;whiteSpace=wrap;overflow=hidden;rotatable=0;points=[[0,0.5],[1,0.5]];portConstraint=eastwest;" vertex="1" parent="21ea969265ad0168-14">
          <mxGeometry y="78" width="160" height="26" as="geometry" />
        </mxCell>
        <mxCell id="21ea969265ad0168-17" value="payment_date &lt;font color=&quot;#006600&quot;&gt;(DATE)&lt;/font&gt;" style="text;html=1;strokeColor=none;fillColor=none;spacingLeft=4;spacingRight=4;whiteSpace=wrap;overflow=hidden;rotatable=0;points=[[0,0.5],[1,0.5]];portConstraint=eastwest;" parent="21ea969265ad0168-14" vertex="1">
          <mxGeometry y="104" width="160" height="26" as="geometry" />
        </mxCell>
        <mxCell id="cT_zoDqVWwbqLLkgSUqI-22" value="amount &lt;font color=&quot;#006600&quot;&gt;(DECIMAL)&lt;/font&gt;" style="text;html=1;strokeColor=none;fillColor=none;spacingLeft=4;spacingRight=4;whiteSpace=wrap;overflow=hidden;rotatable=0;points=[[0,0.5],[1,0.5]];portConstraint=eastwest;" vertex="1" parent="21ea969265ad0168-14">
          <mxGeometry y="130" width="160" height="26" as="geometry" />
        </mxCell>
        <mxCell id="cT_zoDqVWwbqLLkgSUqI-23" value="payment_method &lt;font color=&quot;#006600&quot;&gt;(STR)&lt;/font&gt;" style="text;html=1;strokeColor=none;fillColor=none;spacingLeft=4;spacingRight=4;whiteSpace=wrap;overflow=hidden;rotatable=0;points=[[0,0.5],[1,0.5]];portConstraint=eastwest;" vertex="1" parent="21ea969265ad0168-14">
          <mxGeometry y="156" width="160" height="26" as="geometry" />
        </mxCell>
        <mxCell id="cT_zoDqVWwbqLLkgSUqI-3" value="Products" style="swimlane;html=1;fontStyle=0;childLayout=stackLayout;horizontal=1;startSize=26;fillColor=#e0e0e0;horizontalStack=0;resizeParent=1;resizeLast=0;collapsible=1;marginBottom=0;swimlaneFillColor=#ffffff;align=center;rounded=1;shadow=0;comic=0;labelBackgroundColor=none;strokeWidth=1;fontFamily=Verdana;fontSize=12" vertex="1" parent="1">
          <mxGeometry x="775" y="230" width="160" height="170" as="geometry">
            <mxRectangle x="160" y="74" width="70" height="30" as="alternateBounds" />
          </mxGeometry>
        </mxCell>
        <mxCell id="cT_zoDqVWwbqLLkgSUqI-4" value="&lt;span style=&quot;background-color: rgb(255, 255, 255);&quot;&gt;&lt;font color=&quot;#cc6600&quot;&gt;id&lt;/font&gt; &lt;font color=&quot;#006600&quot;&gt;(INT)&lt;/font&gt;&lt;/span&gt;" style="text;html=1;strokeColor=none;fillColor=none;spacingLeft=4;spacingRight=4;whiteSpace=wrap;overflow=hidden;rotatable=0;points=[[0,0.5],[1,0.5]];portConstraint=eastwest;" vertex="1" parent="cT_zoDqVWwbqLLkgSUqI-3">
          <mxGeometry y="26" width="160" height="26" as="geometry" />
        </mxCell>
        <mxCell id="cT_zoDqVWwbqLLkgSUqI-45" value="&lt;font color=&quot;#007fff&quot;&gt;seller_id&lt;/font&gt; &lt;font color=&quot;#006600&quot;&gt;(INT)&lt;/font&gt;" style="text;html=1;strokeColor=none;fillColor=none;spacingLeft=4;spacingRight=4;whiteSpace=wrap;overflow=hidden;rotatable=0;points=[[0,0.5],[1,0.5]];portConstraint=eastwest;" vertex="1" parent="cT_zoDqVWwbqLLkgSUqI-3">
          <mxGeometry y="52" width="160" height="26" as="geometry" />
        </mxCell>
        <mxCell id="cT_zoDqVWwbqLLkgSUqI-6" value="title &lt;font color=&quot;#006600&quot;&gt;(STR)&lt;/font&gt;" style="text;html=1;strokeColor=none;fillColor=none;spacingLeft=4;spacingRight=4;whiteSpace=wrap;overflow=hidden;rotatable=0;points=[[0,0.5],[1,0.5]];portConstraint=eastwest;" vertex="1" parent="cT_zoDqVWwbqLLkgSUqI-3">
          <mxGeometry y="78" width="160" height="30" as="geometry" />
        </mxCell>
        <mxCell id="cT_zoDqVWwbqLLkgSUqI-7" value="descriptions &lt;font color=&quot;#006600&quot;&gt;(TEXT)&lt;/font&gt;" style="text;html=1;strokeColor=none;fillColor=none;spacingLeft=4;spacingRight=4;whiteSpace=wrap;overflow=hidden;rotatable=0;points=[[0,0.5],[1,0.5]];portConstraint=eastwest;" vertex="1" parent="cT_zoDqVWwbqLLkgSUqI-3">
          <mxGeometry y="108" width="160" height="30" as="geometry" />
        </mxCell>
        <mxCell id="cT_zoDqVWwbqLLkgSUqI-8" value="price &lt;font color=&quot;#006600&quot;&gt;(DECIMAL)&lt;/font&gt;" style="text;html=1;strokeColor=none;fillColor=none;spacingLeft=4;spacingRight=4;whiteSpace=wrap;overflow=hidden;rotatable=0;points=[[0,0.5],[1,0.5]];portConstraint=eastwest;" vertex="1" parent="cT_zoDqVWwbqLLkgSUqI-3">
          <mxGeometry y="138" width="160" height="20" as="geometry" />
        </mxCell>
        <mxCell id="cT_zoDqVWwbqLLkgSUqI-9" value="Transactions" style="swimlane;html=1;fontStyle=0;childLayout=stackLayout;horizontal=1;startSize=26;fillColor=#e0e0e0;horizontalStack=0;resizeParent=1;resizeLast=0;collapsible=1;marginBottom=0;swimlaneFillColor=#ffffff;align=center;rounded=1;shadow=0;comic=0;labelBackgroundColor=none;strokeWidth=1;fontFamily=Verdana;fontSize=12" vertex="1" parent="1">
          <mxGeometry x="225" y="190" width="160" height="200" as="geometry">
            <mxRectangle x="160" y="74" width="70" height="30" as="alternateBounds" />
          </mxGeometry>
        </mxCell>
        <mxCell id="cT_zoDqVWwbqLLkgSUqI-10" value="&lt;font color=&quot;#cc6600&quot;&gt;id &lt;/font&gt;&lt;font color=&quot;#006600&quot;&gt;(INT)&lt;/font&gt;" style="text;html=1;strokeColor=none;fillColor=none;spacingLeft=4;spacingRight=4;whiteSpace=wrap;overflow=hidden;rotatable=0;points=[[0,0.5],[1,0.5]];portConstraint=eastwest;" vertex="1" parent="cT_zoDqVWwbqLLkgSUqI-9">
          <mxGeometry y="26" width="160" height="26" as="geometry" />
        </mxCell>
        <mxCell id="cT_zoDqVWwbqLLkgSUqI-69" value="&lt;font color=&quot;#007fff&quot;&gt;seller_id&amp;nbsp;&lt;/font&gt;&lt;font color=&quot;#006600&quot;&gt;(INT)&lt;/font&gt;" style="text;html=1;strokeColor=none;fillColor=none;spacingLeft=4;spacingRight=4;whiteSpace=wrap;overflow=hidden;rotatable=0;points=[[0,0.5],[1,0.5]];portConstraint=eastwest;" vertex="1" parent="cT_zoDqVWwbqLLkgSUqI-9">
          <mxGeometry y="52" width="160" height="26" as="geometry" />
        </mxCell>
        <mxCell id="cT_zoDqVWwbqLLkgSUqI-11" value="&lt;font color=&quot;#007fff&quot;&gt;buyer_id &lt;/font&gt;&lt;font color=&quot;#006600&quot;&gt;(INT)&lt;/font&gt;" style="text;html=1;strokeColor=none;fillColor=none;spacingLeft=4;spacingRight=4;whiteSpace=wrap;overflow=hidden;rotatable=0;points=[[0,0.5],[1,0.5]];portConstraint=eastwest;" vertex="1" parent="cT_zoDqVWwbqLLkgSUqI-9">
          <mxGeometry y="78" width="160" height="26" as="geometry" />
        </mxCell>
        <mxCell id="cT_zoDqVWwbqLLkgSUqI-13" value="transaction_date &lt;font color=&quot;#006600&quot;&gt;(DATE)&lt;/font&gt;" style="text;html=1;strokeColor=none;fillColor=none;spacingLeft=4;spacingRight=4;whiteSpace=wrap;overflow=hidden;rotatable=0;points=[[0,0.5],[1,0.5]];portConstraint=eastwest;" vertex="1" parent="cT_zoDqVWwbqLLkgSUqI-9">
          <mxGeometry y="104" width="160" height="30" as="geometry" />
        </mxCell>
        <mxCell id="cT_zoDqVWwbqLLkgSUqI-14" value="amount &lt;font color=&quot;#006600&quot;&gt;(DECIMAL)&lt;/font&gt;" style="text;html=1;strokeColor=none;fillColor=none;spacingLeft=4;spacingRight=4;whiteSpace=wrap;overflow=hidden;rotatable=0;points=[[0,0.5],[1,0.5]];portConstraint=eastwest;" vertex="1" parent="cT_zoDqVWwbqLLkgSUqI-9">
          <mxGeometry y="134" width="160" height="32" as="geometry" />
        </mxCell>
        <mxCell id="cT_zoDqVWwbqLLkgSUqI-21" value="status &lt;font color=&quot;#006600&quot;&gt;(STR)&lt;/font&gt;" style="text;html=1;strokeColor=none;fillColor=none;spacingLeft=4;spacingRight=4;whiteSpace=wrap;overflow=hidden;rotatable=0;points=[[0,0.5],[1,0.5]];portConstraint=eastwest;" vertex="1" parent="cT_zoDqVWwbqLLkgSUqI-9">
          <mxGeometry y="166" width="160" height="34" as="geometry" />
        </mxCell>
        <mxCell id="cT_zoDqVWwbqLLkgSUqI-24" value="Carts" style="swimlane;html=1;fontStyle=0;childLayout=stackLayout;horizontal=1;startSize=26;fillColor=#e0e0e0;horizontalStack=0;resizeParent=1;resizeLast=0;collapsible=1;marginBottom=0;swimlaneFillColor=#ffffff;align=center;rounded=1;shadow=0;comic=0;labelBackgroundColor=none;strokeWidth=1;fontFamily=Verdana;fontSize=12" vertex="1" parent="1">
          <mxGeometry x="475" y="490" width="160" height="90" as="geometry" />
        </mxCell>
        <mxCell id="cT_zoDqVWwbqLLkgSUqI-25" value="&lt;font color=&quot;#cc6600&quot;&gt;id &lt;/font&gt;&lt;font color=&quot;#006600&quot;&gt;(INT)&lt;/font&gt;" style="text;html=1;strokeColor=none;fillColor=none;spacingLeft=4;spacingRight=4;whiteSpace=wrap;overflow=hidden;rotatable=0;points=[[0,0.5],[1,0.5]];portConstraint=eastwest;" vertex="1" parent="cT_zoDqVWwbqLLkgSUqI-24">
          <mxGeometry y="26" width="160" height="26" as="geometry" />
        </mxCell>
        <mxCell id="cT_zoDqVWwbqLLkgSUqI-52" value="&lt;font color=&quot;#007fff&quot;&gt;user_id &lt;/font&gt;&lt;font color=&quot;#006600&quot;&gt;(INT)&lt;/font&gt;" style="text;html=1;strokeColor=none;fillColor=none;spacingLeft=4;spacingRight=4;whiteSpace=wrap;overflow=hidden;rotatable=0;points=[[0,0.5],[1,0.5]];portConstraint=eastwest;" vertex="1" parent="cT_zoDqVWwbqLLkgSUqI-24">
          <mxGeometry y="52" width="160" height="26" as="geometry" />
        </mxCell>
        <mxCell id="cT_zoDqVWwbqLLkgSUqI-30" value="CartItems" style="swimlane;html=1;fontStyle=0;childLayout=stackLayout;horizontal=1;startSize=26;fillColor=#e0e0e0;horizontalStack=0;resizeParent=1;resizeLast=0;collapsible=1;marginBottom=0;swimlaneFillColor=#ffffff;align=center;rounded=1;shadow=0;comic=0;labelBackgroundColor=none;strokeWidth=1;fontFamily=Verdana;fontSize=12" vertex="1" parent="1">
          <mxGeometry x="765" y="500" width="160" height="130" as="geometry" />
        </mxCell>
        <mxCell id="cT_zoDqVWwbqLLkgSUqI-31" value="&lt;font color=&quot;#cc6600&quot;&gt;id &lt;/font&gt;&lt;font color=&quot;#006600&quot;&gt;(INT)&lt;/font&gt;" style="text;html=1;strokeColor=none;fillColor=none;spacingLeft=4;spacingRight=4;whiteSpace=wrap;overflow=hidden;rotatable=0;points=[[0,0.5],[1,0.5]];portConstraint=eastwest;" vertex="1" parent="cT_zoDqVWwbqLLkgSUqI-30">
          <mxGeometry y="26" width="160" height="26" as="geometry" />
        </mxCell>
        <mxCell id="cT_zoDqVWwbqLLkgSUqI-32" value="&lt;font color=&quot;#007fff&quot;&gt;cart_id &lt;/font&gt;&lt;font color=&quot;#006600&quot;&gt;(INT)&lt;/font&gt;" style="text;html=1;strokeColor=none;fillColor=none;spacingLeft=4;spacingRight=4;whiteSpace=wrap;overflow=hidden;rotatable=0;points=[[0,0.5],[1,0.5]];portConstraint=eastwest;" vertex="1" parent="cT_zoDqVWwbqLLkgSUqI-30">
          <mxGeometry y="52" width="160" height="26" as="geometry" />
        </mxCell>
        <mxCell id="cT_zoDqVWwbqLLkgSUqI-33" value="&lt;font color=&quot;#007fff&quot;&gt;product_id &lt;/font&gt;&lt;font color=&quot;#006600&quot;&gt;(INT)&lt;/font&gt;" style="text;html=1;strokeColor=none;fillColor=none;spacingLeft=4;spacingRight=4;whiteSpace=wrap;overflow=hidden;rotatable=0;points=[[0,0.5],[1,0.5]];portConstraint=eastwest;" vertex="1" parent="cT_zoDqVWwbqLLkgSUqI-30">
          <mxGeometry y="78" width="160" height="26" as="geometry" />
        </mxCell>
        <mxCell id="cT_zoDqVWwbqLLkgSUqI-34" value="quantity &lt;font color=&quot;#006600&quot;&gt;(INT)&lt;/font&gt;" style="text;html=1;strokeColor=none;fillColor=none;spacingLeft=4;spacingRight=4;whiteSpace=wrap;overflow=hidden;rotatable=0;points=[[0,0.5],[1,0.5]];portConstraint=eastwest;" vertex="1" parent="cT_zoDqVWwbqLLkgSUqI-30">
          <mxGeometry y="104" width="160" height="26" as="geometry" />
        </mxCell>
        <mxCell id="cT_zoDqVWwbqLLkgSUqI-54" value="" style="edgeStyle=entityRelationEdgeStyle;fontSize=12;html=1;endArrow=ERoneToMany;rounded=0;exitX=1;exitY=0.5;exitDx=0;exitDy=0;entryX=0;entryY=0.5;entryDx=0;entryDy=0;" edge="1" parent="1" source="cT_zoDqVWwbqLLkgSUqI-38" target="cT_zoDqVWwbqLLkgSUqI-45">
          <mxGeometry width="100" height="100" relative="1" as="geometry">
            <mxPoint x="465" y="550" as="sourcePoint" />
            <mxPoint x="511.808" y="250.39999999999998" as="targetPoint" />
          </mxGeometry>
        </mxCell>
        <mxCell id="cT_zoDqVWwbqLLkgSUqI-55" value="" style="edgeStyle=entityRelationEdgeStyle;fontSize=12;html=1;endArrow=ERoneToMany;rounded=0;exitX=0;exitY=0.5;exitDx=0;exitDy=0;entryX=1;entryY=0.5;entryDx=0;entryDy=0;" edge="1" parent="1" source="cT_zoDqVWwbqLLkgSUqI-38" target="cT_zoDqVWwbqLLkgSUqI-11">
          <mxGeometry width="100" height="100" relative="1" as="geometry">
            <mxPoint x="365" y="540" as="sourcePoint" />
            <mxPoint x="465" y="440" as="targetPoint" />
          </mxGeometry>
        </mxCell>
        <mxCell id="cT_zoDqVWwbqLLkgSUqI-58" value="" style="fontSize=12;html=1;endArrow=ERmandOne;startArrow=ERmandOne;rounded=0;exitX=0;exitY=0.5;exitDx=0;exitDy=0;edgeStyle=orthogonalEdgeStyle;" edge="1" parent="1" source="cT_zoDqVWwbqLLkgSUqI-52">
          <mxGeometry width="100" height="100" relative="1" as="geometry">
            <mxPoint x="355" y="550" as="sourcePoint" />
            <mxPoint x="475" y="280" as="targetPoint" />
            <Array as="points">
              <mxPoint x="450" y="555" />
              <mxPoint x="450" y="280" />
            </Array>
          </mxGeometry>
        </mxCell>
        <mxCell id="cT_zoDqVWwbqLLkgSUqI-59" value="" style="edgeStyle=entityRelationEdgeStyle;fontSize=12;html=1;endArrow=ERoneToMany;rounded=0;exitX=1;exitY=0.5;exitDx=0;exitDy=0;entryX=0;entryY=0.5;entryDx=0;entryDy=0;" edge="1" parent="1" source="cT_zoDqVWwbqLLkgSUqI-25" target="cT_zoDqVWwbqLLkgSUqI-32">
          <mxGeometry width="100" height="100" relative="1" as="geometry">
            <mxPoint x="355" y="550" as="sourcePoint" />
            <mxPoint x="455" y="450" as="targetPoint" />
          </mxGeometry>
        </mxCell>
        <mxCell id="cT_zoDqVWwbqLLkgSUqI-60" value="" style="edgeStyle=orthogonalEdgeStyle;fontSize=12;html=1;endArrow=ERoneToMany;rounded=0;" edge="1" parent="1">
          <mxGeometry width="100" height="100" relative="1" as="geometry">
            <mxPoint x="935" y="269" as="sourcePoint" />
            <mxPoint x="925" y="590" as="targetPoint" />
            <Array as="points">
              <mxPoint x="970" y="269" />
              <mxPoint x="970" y="591" />
              <mxPoint x="925" y="591" />
            </Array>
          </mxGeometry>
        </mxCell>
        <mxCell id="cT_zoDqVWwbqLLkgSUqI-61" value="TransactionsProducts" style="swimlane;html=1;fontStyle=0;childLayout=stackLayout;horizontal=1;startSize=26;fillColor=#e0e0e0;horizontalStack=0;resizeParent=1;resizeLast=0;collapsible=1;marginBottom=0;swimlaneFillColor=#ffffff;align=center;rounded=1;shadow=0;comic=0;labelBackgroundColor=none;strokeWidth=1;fontFamily=Verdana;fontSize=12" vertex="1" parent="1">
          <mxGeometry x="470" y="100" width="160" height="80" as="geometry" />
        </mxCell>
        <mxCell id="cT_zoDqVWwbqLLkgSUqI-62" value="&lt;font color=&quot;#007fff&quot;&gt;transaction_id &lt;/font&gt;&lt;font color=&quot;#006600&quot;&gt;(INT)&lt;/font&gt;" style="text;html=1;strokeColor=none;fillColor=none;spacingLeft=4;spacingRight=4;whiteSpace=wrap;overflow=hidden;rotatable=0;points=[[0,0.5],[1,0.5]];portConstraint=eastwest;" vertex="1" parent="cT_zoDqVWwbqLLkgSUqI-61">
          <mxGeometry y="26" width="160" height="26" as="geometry" />
        </mxCell>
        <mxCell id="cT_zoDqVWwbqLLkgSUqI-63" value="&lt;font color=&quot;#007fff&quot;&gt;product_id &lt;/font&gt;&lt;font color=&quot;#006600&quot;&gt;(INT)&lt;/font&gt;" style="text;html=1;strokeColor=none;fillColor=none;spacingLeft=4;spacingRight=4;whiteSpace=wrap;overflow=hidden;rotatable=0;points=[[0,0.5],[1,0.5]];portConstraint=eastwest;" vertex="1" parent="cT_zoDqVWwbqLLkgSUqI-61">
          <mxGeometry y="52" width="160" height="26" as="geometry" />
        </mxCell>
        <mxCell id="cT_zoDqVWwbqLLkgSUqI-64" value="" style="edgeStyle=entityRelationEdgeStyle;fontSize=12;html=1;endArrow=ERoneToMany;rounded=0;exitX=1;exitY=0.5;exitDx=0;exitDy=0;entryX=0;entryY=0.5;entryDx=0;entryDy=0;" edge="1" parent="1" source="cT_zoDqVWwbqLLkgSUqI-10" target="cT_zoDqVWwbqLLkgSUqI-62">
          <mxGeometry width="100" height="100" relative="1" as="geometry">
            <mxPoint x="510" y="340" as="sourcePoint" />
            <mxPoint x="610" y="240" as="targetPoint" />
          </mxGeometry>
        </mxCell>
        <mxCell id="cT_zoDqVWwbqLLkgSUqI-66" value="" style="edgeStyle=orthogonalEdgeStyle;fontSize=12;html=1;endArrow=ERoneToMany;rounded=0;entryX=1;entryY=0.5;entryDx=0;entryDy=0;exitX=0;exitY=0.5;exitDx=0;exitDy=0;" edge="1" parent="1" source="cT_zoDqVWwbqLLkgSUqI-4" target="cT_zoDqVWwbqLLkgSUqI-63">
          <mxGeometry width="100" height="100" relative="1" as="geometry">
            <mxPoint x="770" y="269" as="sourcePoint" />
            <mxPoint x="620" y="270" as="targetPoint" />
            <Array as="points">
              <mxPoint x="720" y="269" />
              <mxPoint x="720" y="165" />
            </Array>
          </mxGeometry>
        </mxCell>
        <mxCell id="cT_zoDqVWwbqLLkgSUqI-71" value="" style="edgeStyle=orthogonalEdgeStyle;fontSize=12;html=1;endArrow=ERoneToMany;rounded=0;entryX=0;entryY=0.5;entryDx=0;entryDy=0;exitX=0;exitY=0.5;exitDx=0;exitDy=0;" edge="1" parent="1" source="21ea969265ad0168-16" target="cT_zoDqVWwbqLLkgSUqI-11">
          <mxGeometry width="100" height="100" relative="1" as="geometry">
            <mxPoint x="110" y="475" as="sourcePoint" />
            <mxPoint x="220" y="250" as="targetPoint" />
            <Array as="points">
              <mxPoint x="190" y="525" />
              <mxPoint x="190" y="280" />
              <mxPoint x="225" y="280" />
            </Array>
          </mxGeometry>
        </mxCell>
        <mxCell id="cT_zoDqVWwbqLLkgSUqI-72" value="" style="edgeStyle=orthogonalEdgeStyle;fontSize=12;html=1;endArrow=ERoneToMany;rounded=0;entryX=0;entryY=0.5;entryDx=0;entryDy=0;exitX=0;exitY=0.5;exitDx=0;exitDy=0;" edge="1" parent="1" source="cT_zoDqVWwbqLLkgSUqI-70" target="cT_zoDqVWwbqLLkgSUqI-69">
          <mxGeometry width="100" height="100" relative="1" as="geometry">
            <mxPoint x="60" y="420" as="sourcePoint" />
            <mxPoint x="160" y="320" as="targetPoint" />
            <Array as="points">
              <mxPoint x="150" y="551" />
              <mxPoint x="150" y="255" />
            </Array>
          </mxGeometry>
        </mxCell>
      </root>
    </mxGraphModel>
  </diagram>
</mxfile>
